/* XPM */
static char *c00d8847ce144ea2a1f53e1cd01b51a0ti6Fm7uLsugF5Z0u[] = {
/* columns rows colors chars-per-pixel */
"50 50 228 2 ",
"   c #040403",
".  c #090706",
"X  c #090907",
"o  c #090708",
"O  c #0C0A0A",
"+  c #120E0D",
"@  c #120C07",
"#  c #13100E",
"$  c #19140B",
"%  c #1B1506",
"&  c #0C0D13",
"*  c #120F11",
"=  c #151213",
"-  c #1A1515",
";  c #1D1816",
":  c #1B1718",
">  c #1E1A19",
",  c #12141D",
"<  c #241D04",
"1  c #221B0B",
"2  c #201606",
"3  c #231B15",
"4  c #2A1C13",
"5  c #221D1C",
"6  c #2A1E18",
"7  c #301E15",
"8  c #2D2406",
"9  c #282107",
"0  c #352B0B",
"q  c #392A09",
"w  c #322608",
"e  c #3B320C",
"r  c #2C2515",
"t  c #2D2914",
"y  c #25201E",
"u  c #2B221D",
"i  c #2E2A1D",
"p  c #252110",
"a  c #322414",
"s  c #3B2415",
"d  c #33241B",
"f  c #342B1C",
"g  c #3D291B",
"h  c #382C12",
"j  c #3E3514",
"k  c #3E351A",
"l  c #383419",
"z  c #191E2B",
"x  c #181B25",
"c  c #241F21",
"v  c #1E212B",
"b  c #262121",
"n  c #292321",
"m  c #2E2522",
"M  c #2B2625",
"N  c #2D2725",
"B  c #2B2423",
"V  c #2D2826",
"C  c #2E2824",
"Z  c #2C2729",
"A  c #2E2929",
"S  c #2E2929",
"D  c #302724",
"F  c #302724",
"G  c #312927",
"H  c #322925",
"J  c #312B2A",
"K  c #322C2A",
"L  c #322D2D",
"P  c #332C2B",
"I  c #382F2C",
"U  c #3D2E24",
"Y  c #3A3424",
"T  c #3D3A24",
"R  c #36302E",
"E  c #3A312E",
"W  c #393528",
"Q  c #363131",
"!  c #363131",
"~  c #3A3332",
"^  c #3B3432",
"/  c #3C3533",
"(  c #3E3939",
")  c #3F3935",
"_  c #272B36",
"`  c #443D0C",
"'  c #493B0B",
"]  c #513F0C",
"[  c #432916",
"{  c #442B1A",
"}  c #462B17",
"|  c #443A11",
" . c #43351C",
".. c #433A1B",
"X. c #473318",
"o. c #54351C",
"O. c #593A1D",
"+. c #47392E",
"@. c #433828",
"#. c #503520",
"$. c #443A35",
"%. c #4A3C33",
"&. c #443C3B",
"*. c #443935",
"=. c #52430C",
"-. c #5C4B0A",
";. c #59490C",
":. c #4C4215",
">. c #4C431D",
",. c #534514",
"<. c #5A4C13",
"1. c #5B4E1B",
"2. c #524918",
"3. c #5F531A",
"4. c #5E5113",
"5. c #4D4108",
"6. c #644E09",
"7. c #66520C",
"8. c #6B560C",
"9. c #6E590A",
"0. c #735D0B",
"q. c #705B07",
"w. c #635513",
"e. c #6C5C15",
"r. c #6C5E1D",
"t. c #645519",
"y. c #715C13",
"u. c #765F1D",
"i. c #736113",
"p. c #746519",
"a. c #7C6817",
"s. c #4C4224",
"d. c #4B452D",
"f. c #594E23",
"g. c #514324",
"h. c #5D5324",
"j. c #595029",
"k. c #4C4934",
"l. c #4A4438",
"z. c #534937",
"x. c #595433",
"c. c #565337",
"v. c #625625",
"b. c #635827",
"n. c #685D26",
"m. c #655A2A",
"M. c #6A5D2B",
"N. c #6A5E33",
"B. c #655B39",
"V. c #6C632C",
"C. c #6D6020",
"Z. c #736524",
"A. c #7C6D25",
"S. c #74692A",
"D. c #7E6E2F",
"F. c #6B6635",
"G. c #6D6A36",
"H. c #6D673B",
"J. c #706B37",
"K. c #766A39",
"L. c #797139",
"P. c #232D48",
"I. c #2A334E",
"U. c #293353",
"Y. c #2A3659",
"T. c #333B52",
"R. c #474040",
"E. c #4A4241",
"W. c #4A4B4D",
"Q. c #595342",
"!. c #565A5C",
"~. c #605C47",
"^. c #716B40",
"/. c #696757",
"(. c #766E53",
"). c #686D65",
"_. c #846F0B",
"`. c #87730B",
"'. c #857114",
"]. c #8C7512",
"[. c #89781C",
"{. c #907E19",
"}. c #92790F",
"|. c #837525",
" X c #8C7C25",
".X c #877A2C",
"XX c #917E28",
"oX c #877C35",
"OX c #8B7D49",
"+X c #827445",
"@X c #807152",
"#X c #9D8A1C",
"$X c #978216",
"%X c #AD920E",
"&X c #A48E1B",
"*X c #A9921A",
"=X c #AB9315",
"-X c #B39B1B",
";X c #B7990E",
":X c #BBA31B",
">X c #BDA415",
",X c #8F812C",
"<X c #93832B",
"1X c #9C8E2B",
"2X c #958627",
"3X c #908535",
"4X c #A48F25",
"5X c #A48E2A",
"6X c #A79527",
"7X c #B59E21",
"8X c #A59439",
"9X c #B8A424",
"0X c #C3AA15",
"qX c #C7AC1A",
"wX c #C9B01B",
"eX c #CAB114",
"rX c #D5BA17",
"tX c #C2A927",
"yX c #CDB825",
"uX c #E5CB1A",
"iX c #8A8444",
"pX c #968B4E",
"aX c #8E8551",
"sX c #978E50",
"dX c #9F9652",
"fX c #A69257",
"gX c #AF9962",
"hX c #C3AC57",
/* pixels */
"C N = = $ * - * O = = = = = > : - = ; - = = * * B J P 6 * - = = = = + = = = = - > > = - > = - = + * ",
"C G + . O O + O O X X X X o X X O O O X o X X O c G P 6 o o O O O X O X . o X X o X O X X o . X o * ",
"P m * X : 5 3 > - y > > > 5 5 5 5 5 5 c 5 > > = n J J 5 o + 3 5 > > > > > > > y 3 5 5 5 5 c 5 > - - ",
"D m + O : 5 5 5 3 v > > > y b n b n D m B b 5 : n I G 5 o * > 5 y y > b > > > b B n c N D B b b 3 : ",
"n u + O - 3 5 > = : - - - > y 5 5 5 n 5 3 5 > = c P D 5 . + ; 3 5 - - = - - - 5 5 c > b y 3 5 > > = ",
"D F = > B A A B V M V V C C A K A P R P L J A c 5 G H 6 * n M J A M V M A V V A A J A I R K L A A , ",
"H F : I ~ ~ ! P A R ! ! ! ~ ! ! / ^ ^ ^ ( ( ~ b n G I 5 3 *.~ ~ ! L A R ! ! ! ~ ! ^ ^ ^ ^ ~ &./ ! > ",
"H D - 6 5 5 5 5 5 b > y > b N B B b D N A M 5 : B J H 5 - y 5 5 > y > b 5 > 5 n N M b m D A A b > - ",
"I A - 3 3 5 c 5 > > > > ; 5 n b 5 5 M 6 5 5 3 = k #.Y i - 3 3 5 y > > > > > ; y B 5 3 n m 5 b 5 : - ",
"I G + + * + + + O O O + O = = = - + = = # = O ; <.t f X.$ + + + = + X O O + O = = - * # = + # O O * ",
"H D +   O O O O O O O o O O O X O O O O X O 9 =.@ X y r ] % O & O O O O X O O O o O + O O X O O o & ",
"J n + . > 5 5 5 3 c c > 5 5 b y b 6 c B c k q.8     > O q w.n 3 > y > b 5 > c b 5 c 5 c n B c 5 > - ",
"H F + o : 3 5 5 5 > > > > 5 b y c b N n k i.9       # O o e y.f y > > > > > > y n n b B m n b 5 5 = ",
"I 6 + + - 3 5 > * : : : - > b 5 c 5 y X.9.9                 e y.f = - - ; - - > 5 5 5 5 b 3 5 > > = ",
"^ F $ c P ~ ! J P P L L L L ! I ! ! z.D.s.n K i 0 <.S , b A b j.S.E A R L ! ! ! ! I ~ ~ ^ ! / ! ! > ",
"*.n - H P P G A Z G P L P L ! L ! s.p.r & u F.Q.[.rX/.U.I.T., = ..r.W A L A A I L ! I I I ! ( ! A : ",
"P F - 5 5 5 5 5 > c > 3 5 c n b ..0.9     . f k. XyX/.Y.U.Y.&     e y.f > > 3 b n M b n F N N c > - ",
"H D - 3 3 > c 5 : : > > - 3 5 ..0.<       $ 2.s.Z.<XW.P.P.U.&       0 7.r : > 5 c 5 5 n n 5 5 5 > = ",
"H m - o O O X X o X X O X O 1 6.8   X X   * ! _ I.!.2XV...h           0 ] $ o O + + + O + O O O o * ",
"F n *   + * = # * * + & * w 6.% < _.`.i.N & U.U.Y.).uXiXH.>Xr l _._.0.$ 0 ;.3 + + + + + O + + & & * ",
"F n + . > 5 5 5 3 c c > j 0.9   ' :X.X-X/.v U.U.Y./.uX3XL.wXz.iX0Xt.>.4 @ e 2.y b B b b B M b c 3 - ",
"F F * X - 5 y 5 > > > k 0.%     5.9XoX-XW.v z , v W j.>.g.:.v S.eXp.` .     3 k f c y b B y b c > : ",
"D D = O - > y > - : h i.0 + # O :.yXqX7XQ.D.k.D 3.l ;.$ 4.1.A.V.0XrX>X1 . X = ..e.C y y u 5 5 > > - ",
"G J > H *.*.&.^ ~ *.d.d.H.pXpXaX(.fXfXgX(.sX/.^.*XV.a.> 3XdXdXE.Q.OXhXB.+XOXOXl.x.K.l.~ ^ ~ &.l.&.x ",
"A P > F H P N B ..3.; p -X4XV.N.V.8X(.tX^.,X~.F.$X3X2XW L.6X1XH.,X6X9XA.wXD.V.t O j p.u > b V V B : ",
"D A > 3 5 c 5 k 0.9 = 1 %X}.3 = k V.j.S.k.h.d.5 d.x.V.s.t d.f.) F.C.d.Z.rX<.% X     0 :.3 > > > : - ",
"A B - : 3 ;  .0.w   O 1 %XeX-X|.|.*X=X#XS. Xl % [.4X=X[.T G.,Xx.oX Xk.n.rXrXeX5.    . j w.p - - - = ",
"G n = O o 1 ,.%     X O ' 0.$X%X@.;.].B 1 ].i % &X:X-.e A.Z.'.C.7.e.a.H i.'.;X6.  X   X 0 5.$ X o * ",
"R A =   h 8.<         X * , C.rXk.4.*Xv % &XT < *X:X=.r #X,X#X.X=.r.$Xi _ k.eX`.    O X   0 e.4 & * ",
"R A = 8 q.<           O A.,X9XrXW 4.6Xb @ &X.XC.2X*X|.S.[..X#X.X1X1X,XV.8X7XuX].0 w $       e y.i - ",
"I C a 8.w       X O O @ 4.y.e.2.O t >.* X l 3.<.p j 4.2.$ l :.t 4.4.F d.i.0.e.0 1 q @ X   X . | w.3 ",
"D  .p.oXG.G.G.G.G.x.k.F.G.G.G.G.G.G.G.G.G.G.G.4.-.q.q.-.3.G.G.G.G.G.G.^.G.G.G.G.G.G.G.G.G.G.G.J.2X9.",
"D @.' v.m.b.v.f.f.s.Y f.h.v.v.v.m.b.b.b.m.m.v.] ,.v.t.O.] m.m.v.h.f.f.h.v.h.h.v.v.v.v.b.v.v.N.v.1.| ",
"J A - 3 c 5 5 5 > c 5 > > c B c c n D Z Z B > : c L J c : 6 c 5 c > > c > > > n b b c N A B Z c : , ",
"H B - : > : 5 > - - > : - > c 5 5 5 n 5 3 c > = B ~ J b - 3 : > 5 > - : ; - = 5 5 y 5 y n > 5 > : - ",
"B F + O O O O X o X o X o O O O O O O O o o o & b H D 5 O O O O X o o o O O O O O O O O O O X X O * ",
"n F # o - - = - = = = = = - = = - - = = = = * * b G F 6 X O - - - = - - * = = ; = = - = - = = - = * ",
"5 B * O > 3 5 5 > b y > 5 b n M b b N N Z b 5 : y n n 5 X = 5 5 5 5 x b 5 5 5 y n B b B N M b 5 3 : ",
"c D = O : 3 c 5 > > > ; - 5 5 y 5 c B 6 5 c 5 - 5 m D n O = : 3 c > > > : : ; 5 b 5 5 n m 5 c 5 > = ",
"D H = + 3 c B 5 > > 5 5 5 y B B n b A n 5 b b > n F H B O : 5 y b 3 > > 5 5 5 n M N b n N 5 n b 5 : ",
"B P > ~ $.$.&.$.+.$.&.E.E.z.%.&.*./ %.^ *.R.E.L c G L B 3 *.&.&.*.$.%.%.R.R.&.&.( *.&.%.%.*.&.&.&.c ",
"B P : 6 U { F H o.O.@.b n { o.s 5 - g { [ E L 3 b P P Z > n I I B U O.O.H b M b 7 u 5 F X.o.U F c = ",
"B A - 3 7 7 7 y B { { 3 3 3 7 7 7 - > d } } u : c H G b : 3 6 F y y d { a 3 ; 6 s [ a c d 7 s 6 > - ",
"n B - - : 4 s [ 5 r h 4 3 = - 7 s 4 = = 6 4 4 - n H A c * > 3 s [ u > g d 4 : - 3 [ [ 7 3 - 4 3 - = ",
"B n = o O O + + O o O o O o o O + @ . o o o O O c H H 5 O X O O @ O O O o o O o . O + O O o o o O & ",
"G J = o > > : : : > : = : 5 3 - > > : 3 > > - * 5 H P B o + 5 > : - : > - : > > : > > 3 - 5 - - = = ",
"G J = X > 3 5 c 5 c 5 5 5 c c B B n N N B c 5 : 5 J I B O * 3 5 5 5 5 b 3 5 3 n n n n B B Z Z c > : ",
"B A = X - > 5 3 - : - > - 3 5 c 5 5 n 5 5 5 > : 6 P J c o * > 3 5 > - : : : > 5 5 5 5 c n 3 c 3 : - ",
"y D - B ^ ^ ^ I C P / ( / / / / *.! R I ~ / *.Z c H H b : P ^ ^ ! K J R / *.( / / / / ^ E P / ( / > ",
"n G > I ^ I I J Z A ! ! ! Q ~ ! Q I ~ ~ / ( ! c b P H B 5 ^ E ^ J A N K ! ! ! ! ! Q ~ R ~ I ( / L > "
};
