/* XPM */
static char *_3ff627e57bc44daa64ae9146eee678cs6m2zhcFhYHZkcKu[] = {
/* columns rows colors chars-per-pixel */
"50 50 238 2 ",
"   c #040201",
".  c #0B0302",
"X  c #0F0806",
"o  c #130401",
"O  c #1A0906",
"+  c #1F120D",
"@  c #280805",
"#  c #3D0C07",
"$  c #23130B",
"%  c #331114",
"&  c #351E16",
"*  c #3C2418",
"=  c #150B3E",
"-  c #1E1139",
";  c #310D2B",
":  c #261629",
">  c #341E28",
",  c #280730",
"<  c #360B38",
"1  c #241539",
"2  c #3C212D",
"3  c #39223C",
"4  c #460E07",
"5  c #510F04",
"6  c #4C1106",
"7  c #4D1308",
"8  c #551106",
"9  c #5B1306",
"0  c #59120C",
"q  c #490F1D",
"w  c #581314",
"e  c #641506",
"r  c #6C1706",
"t  c #63150B",
"y  c #6C1709",
"u  c #621A0B",
"i  c #6D1808",
"p  c #771A07",
"a  c #741909",
"s  c #7B1B09",
"d  c #691716",
"f  c #741A13",
"g  c #791B19",
"h  c #4B2916",
"j  c #472819",
"k  c #4D2B1A",
"l  c #502E1C",
"z  c #4E301E",
"x  c #56321A",
"c  c #5B331C",
"v  c #5E381E",
"b  c #6F321A",
"n  c #460E26",
"m  c #4C1026",
"M  c #581326",
"N  c #440E37",
"B  c #4D113E",
"V  c #591737",
"C  c #681829",
"Z  c #781C21",
"A  c #631736",
"S  c #731C35",
"D  c #432A2A",
"F  c #4D322B",
"G  c #5D3A24",
"H  c #573528",
"J  c #5D352D",
"K  c #452737",
"L  c #472837",
"P  c #4A2A3A",
"I  c #513331",
"U  c #583636",
"Y  c #53313C",
"T  c #623A23",
"R  c #6A3E27",
"E  c #633C2C",
"W  c #782538",
"Q  c #633B32",
"!  c #693E35",
"~  c #643E3B",
"^  c #65432B",
"/  c #6C432C",
"(  c #6D4D2C",
")  c #72482D",
"_  c #6B4333",
"`  c #684634",
"'  c #6D443B",
"]  c #734A36",
"[  c #7A4E33",
"{  c #764A38",
"}  c #744B3C",
"|  c #765135",
" . c #7B543C",
".. c #0F094C",
"X. c #1E104A",
"o. c #0D075D",
"O. c #0E095F",
"+. c #12045B",
"@. c #12095C",
"#. c #190A58",
"$. c #1E135B",
"%. c #290846",
"&. c #2C094D",
"*. c #380C49",
"=. c #281747",
"-. c #341D43",
";. c #37134B",
":. c #351E49",
">. c #2A095B",
",. c #370D57",
"<. c #330C5C",
"1. c #25155D",
"2. c #291959",
"3. c #36185A",
"4. c #3D2346",
"5. c #3C2655",
"6. c #0D0564",
"7. c #0B0668",
"8. c #0D056B",
"9. c #1A0564",
"0. c #130A63",
"q. c #14046B",
"w. c #110A69",
"e. c #1A0869",
"r. c #1C1168",
"t. c #040276",
"y. c #0B0474",
"u. c #02007E",
"i. c #0B037B",
"p. c #0E0878",
"a. c #130473",
"s. c #130C73",
"d. c #10057A",
"f. c #1B1274",
"g. c #280A65",
"h. c #340C67",
"j. c #26186B",
"k. c #321D61",
"l. c #221673",
"z. c #261A75",
"x. c #281D75",
"c. c #22187B",
"v. c #291E79",
"b. c #372464",
"n. c #2D237C",
"m. c #362570",
"M. c #430F45",
"N. c #4E144B",
"B. c #5B1747",
"V. c #420F51",
"C. c #41125E",
"Z. c #571B55",
"A. c #462848",
"S. c #552548",
"D. c #593744",
"F. c #4A2D52",
"G. c #4F3257",
"H. c #513254",
"J. c #593955",
"K. c #5B3C5C",
"L. c #632445",
"P. c #663B43",
"I. c #400E61",
"U. c #411062",
"Y. c #472D63",
"T. c #4B366E",
"R. c #6E4A4D",
"E. c #744948",
"W. c #7B5346",
"Q. c #76545B",
"!. c #5D4262",
"~. c #634866",
"^. c #6B526D",
"/. c #831D06",
"(. c #841E0A",
"). c #891F0A",
"_. c #871E14",
"`. c #8D200B",
"'. c #93220B",
"]. c #9B260B",
"[. c #9B240C",
"{. c #8D2519",
"}. c #942616",
"|. c #87311E",
" X c #95321D",
".X c #A3260C",
"XX c #AA270C",
"oX c #A4290D",
"OX c #AC280D",
"+X c #B32B0E",
"@X c #BB2D0E",
"#X c #BA320F",
"$X c #A72B12",
"%X c #B42E11",
"&X c #BB2E11",
"*X c #B02C19",
"=X c #A93312",
"-X c #BC3313",
";X c #B83515",
":X c #821F22",
">X c #872529",
",X c #992B29",
"<X c #842739",
"1X c #952B33",
"2X c #992E31",
"3X c #A93024",
"4X c #C8320F",
"5X c #C32E10",
"6X c #C43212",
"7X c #CC3413",
"8X c #C53C16",
"9X c #CD3B15",
"0X c #D33613",
"qX c #D53B15",
"wX c #D93816",
"eX c #D93C16",
"rX c #9E442C",
"tX c #82563A",
"yX c #885A3B",
"uX c #965738",
"iX c #AA442A",
"pX c #B1482C",
"aX c #B54E32",
"sX c #C74119",
"dX c #D54319",
"fX c #D74418",
"gX c #D94319",
"hX c #D74A1B",
"jX c #835B41",
"kX c #895A46",
"lX c #936445",
"zX c #9A6848",
"xX c #906753",
"cX c #A46746",
"vX c #A47553",
"bX c #946F66",
"nX c #010080",
"mX c #302880",
/* pixels */
"L H.nXnXnXnXnXnXy., % w *.nXnXnXu.nXu.nXf.Q.W.1.w.Q l.nXnXnXnXnXu.#.< < *.q.nXnXu.nXu.u.nXm.xXU y.4.",

"L F.nXu.nXnXu.u.< 5 a [.f &.u.u.nXnXnXu.nXp.W.U @.Q l.nXnXnXnXnX9.w s [.[.m y.u.nXnXnXnXnXnXb.tX:.-.",
"L H.nXnXnXnXu.6.0 s .X@X/., t.u.nXnXnXnXnXnXT.' +.Q l.nXnXnXu.u.N /.(.+XOXw t.u.nXnXnXnXnXnXp.R.:.-.",
"P H.nXnXnXnXt., s ).XX-X.Xw 9.u.u.nXnXu.nXnXT.` +._ l.nXnXu.nX9.f [..X#X7X6 ..u.u.nXu.nXnXnXnXQ.:.-.",
"Y K.nXnXnXnX8.0 )..XXX6X+X[.*.nXu.nXnXnXnXnXY.' 1.{ x.nXnXu.u.< a `.OX4X6X# %.u.u.nXu.nXnXnXp.R.A.4.",
"R ~.nXnXu.nX#.9 '..X@X.X=X#XA nXu.nXu.nXnXw.W. .D W.v.nXnXu.y.d a '.OX@X%Xy w d.u.nXnXnXu.u.5.jX^ H ",
"G K.nXnXnXnXN y [.'.).6 (.#Xd d.nXu.nXnXnXl.) yXk ] z.nXu.nX&.t i .X6X}.#Xs q i.u.nXnXnXu.nXA.tX| k ",
"x K.nXnXnXi.M 5 +Xp r i 4 [.XXB.i.u.u.nXnXd.>XzXl / z.nXu.a.n 9 '.OX=Xa 8X=X0 e.nXnXu.nXnXnX,.rXjXk ",
"c K.nXu.nX*.y 0 &Xi (.[.e '.OX%X>Xl.nXnXnXnX2XcXl ] v.nXa.C '.OX6X+XOXa %X6X/.A nXu.nXnXu.nXC.pXtXk ",
"c !.nXu.q.g .XOX'.e .X'.a .XOXOX0X1Xu.nXnXi.2XuXk ] n.nX>..X+X0X7X5X+X[.`.6X+X*X,.u.nXnXnXnXU.pX .k ",
"G ~.nXnX*..XoX6Xp `.OX'.y /.'.+X5X,XnXnXnXd.2XuXj { n.nXM OX6X7X5X4X@X.Xa OX5X6XS i.u.nXnXnXU.aX] j ",
"T ^.i.nXM XX-X6X).OXOX'.e [.{.N.N.g.nXnXnXd.2XcXl W.mX9._.@X6X).0X7X@XXXi s +X7X-X,.nXu.nXnXC.aXjXx ",
"v ~.nXq._.&XwX+X@X+X+X'.y qXW nXnXnXnXnXnXp.2XuXk  .n.N OX6X).(.0X5X+XOXe e '.6XeX2Xd.nXnXnXU.pX[ x ",
"x ~.nXg.$X0X7X@X5X[.+X.Xr sXS i.nXnXnXnXnXp.1XuXj ' F._.+X[.9 .X0X.X+X%Xe p q .XqX3Xd.nXnXnXU.iX) j ",
"x K.nXg.&X0X'.'.OX(.[.(.8 +XC i.nXnXnXnXnXp.<XuXk _ S.[..Xt 5 .XXX)..X.X9 ).&.N.*X,Xd.u.u.nXC.rX[ j ",
"x J.nXa.S <XN 8 p s p r r '.C u.nXnXnXnXnXr.[ [ j ! N..Xg #.< t p [.).p 5 p N.i.<.g.u.u.u.u.A. .^ k ",
"H K.nXnXi.i.i.%.y '..XXX5XqX;X,.nXu.nXnXnXw.I G > _ k.V >.nXi.< y s s /.'.&X;X<.nXnXnXnXnXu.=.^ F D ",
"Y K.nXnXnXu.nXq.d [.XXOX7XwXqX}.g.u.u.u.nXnX5.U #.} x.nXnXnXnX9.a '.XX+X5X0X6X>Xe.nXnXnXnXnXi.D.3 4.",
"L H.nXnXnXnXu.u.N )..XXX5XwX-X;XS i.u.nXu.p.Q.Y 6.! l.u.u.u.u.u.N )..X.X5XwXXX-XS i.nXnXnXnXm.kXX.-.",
"L H.nXu.nXnXnXnX&.s '..X+X&X.X7X6X<.nXu.p.H.tX2.7.Q l.nXnXu.u.u.n p '..X+X+X'.7X6Xg.nXnXi.f.W.U t.-.",
"K H.nXu.nXnXu.nX&.t 9 s p 6 ).@XgXZ.nXi.K.[ > t.w.Q l.nXnXu.u.y.M 9 8 p p 6 `.+XqXB.nXnXz.W.T %.nX-.",
"L F.nXu.nXnXu.u.N a @ o . o ).+X0XZ.i.^.vX[ 3 t.w.Q f.nXnXnXnXq.s p @ O o O '.XX7XB.nXl.bXzXG 0.nX:.",
"K H.nXnXnXnXnXd.Z .Xs O   @ '.OX0XZ.~.zX^ G J 2.6.Q l.nXnXnXnX9.'.XX).@   @ [.XX7XB.z.bXtXG G I q.-.",
"P ~.nXnXnXnXnXa._.@X5Xp o 5 [.+X3XP.yXj .   * I +.} v.nXnXnXnX*.[.+X5X(.@ 9 [.+X7XL.W.) $   . G 4.-.",
"Y ~.nXnXnXnXnX>..X5X0X5X6 ).OX>XE.tX* . .   X U @.} v.i.u.u.nXB XX@X7X5X8 [..XXX<XjX) $ .     * 5.4.",
"L J.u.u.nXu.u.<..X5XwX0Xs [.:XP.vXR . . o . X U @._ x.nXnXnXu.C OX@X7X+XM .X[.W W.zX*   o .   * 5.-.",
"3 ' s.nXu.u.u.V XX@X0X7Xg Z P.kXvXH       . + U @.E F.nXnXnXy.f .X@X6X>X*.`.V W.zXzX$     . . * 4.=.",
"#.R G.i.u.u.i.A XX@X0X3X*.P.[ c ) ) +       $ F y.3 } j.u.nXy.f XX+X@XV #.V W./ G tXH         z 4.6.",
"u.-.| H.z.c.c.N.W P.1XL.E.{ > = : H k o . + ^ 4.u.6.I  .b.c.z.B.W L.W C.F.} G 1 = > T & X X * J #.u.",
"nXt.=.J ] ] ` Q ` ` ! R F X.t.u.nX@.* k k T 3 t.u.nX7.3 / { _ ^ ^ ` ' ) R 2 7.u.nXt.1 h h x G $.u.u.",
"u.nXt.: : ..O.O.0.6.0.@.7.t.nXnX6.1 = o.6.O.t.nXu.nXnXo.& - 0.O.O.0.0.7.6.t.nXnXt...1 ..6.O.7.u.u.nX",
"nXr.4.( ^ 4.y.r.2.2.b.b.2.1.w.r.D ( F r.nXnXnXnXnXi.k.I ( F r.s.1.2.k.5.b.2.$.p.=.H ( 3 p.nXnXu.u.nX",
"w.E.[ ~ ~ E J _ tXkXzXzXkX .^ E E U tX} j.u.nXnXu.4.tX' R.J G E ] yXzXzXlXyX| J T U ~ yXD.p.u.u.nXw.",
"L } $.t.t.$.L ^ / |. X Xb / J -.w.t.j.R.tX1.u.nXw._ D.7.y.y.=.I ^ b  X X{.R ^ F 2.y.p.5.kXD.y.u.nX-.",
"L J.nXnXnXnXt.X.1 ,.U.U.3.1 0.u.nXnXnXs.Q.xX1.nXq.! j.nXnXnXnXw.=.;.h.U.h.-.=.y.nXnXnXnXm.vXD.y.nX-.",
"L H.nXu.nXnXnXu.i.nXnXnXnXu.u.u.u.nXnXnXf.Q. .1.0.! l.nXnXu.nXnXu.nXi.a.a.u.t.u.u.nXu.nXu.b.xXD.t.-.",
"L F.nXnXnXnXnXu.u.nXi.q.y.nXnXnXnXnXnXu.u.s.W.U 0.Q l.nXnXnXnXu.u.y.B }.'.M.y.u.u.nXu.nXu.u.b.yX-.-.",
"L H.nXu.nXnXnXu.nX+.C ).g >.u.nXnXnXu.nXnXu.T.` +.Q l.nXnXnXnXnXu.M.XX.X%Xt ; 8.nXu.nXnXu.u.i.W.:.-.",
"P H.nXnXnXnXnXnXt.M .X6X9Xf +.u.u.nXnXnXnXnXT.R.+.! l.nXu.nXnXnXt.q '.OX7X$Xe %.nXnXu.nXnXnXnXQ.:.-.",
"Y K.nXnXnXnXnXnX6.t OX9XfX]., t.u.nXu.nXnXu.Y.` #.] v.nXnXnXu.u.t.; [.@XeXdX8 n t.nXnXnXnXnXi.R.A.4.",
"E ~.nXu.nXnXnXnXX.4 [.7XgX=X@ +.nXnXnXnXnXs.E. .D W.v.u.nXnXnXnX6.O 6 OXsXdX7 # 9.nXnXnXu.u.5.jX` F ",
"T K.nXnXnXnXnXa.*.# (.5XhX=XO , i.u.nXu.nXr.] yXz ] x.nXnXu.nX9.*.# 4 .XqXhXu % 9.nXnXnXnXu.A.tX| x ",
"c J.nXnXu.nX>.:X_.e `.0XgX;X6 4 < p.nXu.nXd.>XzXl / z.nXnXu.y.d XX/.p OX7XfX`.f A V.u.nXnXnX,.rXjXk ",
"c K.nXu.u.q._.+XOXs OX0XwX6X.X&XOXV.nXu.u.i.1XcXk ] v.nXu.nX%.'.+X'.[.6X0X0XoX#XdX-X<.nXi.nXh.aXtXk ",
"c !.nXnXnX*.[.OX'.`.wXwXqX8X$XhXgX>Xu.nXnXp.2XuXl ] v.nXnXi.M .XXX).&XwXeXeX%X;XhXfXS u.nXnXU.pX{ l ",
"c ~.nXu.u.V '..Xs oXgXqXqXqX=XhXeX,Xq.u.nXp.2XuXj  .n.u.nX9._.[.[./.5XeXqXqX-X=XgXqX>Xu.nXnXC.aX{ k ",
"v ^.nXu.q.g p (.i -XgXwX0X0X X8X5X%X<.nXnXnX2XcXk tXn.nXu.< '.a (.(.7XgXqX0X7XoX#X6X,Xt.u.nXI.aXjXl ",
"v ^.nXnX<.).r p p 9XhX7X&X0X'.$X}.-X<.nXnXd.2XuXH W.n.nXq.d s q s s qXhX7X&XqX].=X].,Xi.nXnXU.pX[ l ",
"c !.nXnX<.'.a e a 9X8X].%X6Xs ].).;X<.nXnXd.2XuXj _ n.nXq.g /.< d t 7X-X.X+X0Xs oX.X,Xt.nXnXC.iX) h ",
"x K.nXu.a.g (.5 e .X`.s '.XXt .X+X,Xq.nXnXd.>XuXj _ v.u.t.M.[.0 8 9 '.'.'.'.OXi ].%X>Xu.nXnXh.iX[ h "
};
