/* XPM */
static char *aac5d63117c949ccf33cd3b5dac9acd8jgrgcF5bo2LfLqsQ[] = {
/* columns rows colors chars-per-pixel */
"50 50 192 2 ",
"   c #0E0D0B",
".  c #0D0A07",
"X  c #1D0B07",
"o  c #120E0C",
"O  c #180A07",
"+  c #15110E",
"@  c #1E140E",
"#  c #130F10",
"$  c #151213",
"%  c #1A1615",
"&  c #1B1816",
"*  c #1A131B",
"=  c #1E1A1A",
"-  c #3B0B05",
";  c #23110E",
":  c #3E120C",
">  c #221D1C",
",  c #2A1E1A",
"<  c #251A17",
"1  c #311D14",
"2  c #341B18",
"3  c #25201E",
"4  c #2B211E",
"5  c #37221C",
"6  c #3A251D",
"7  c #161A25",
"8  c #211E20",
"9  c #252222",
"0  c #2B2524",
"q  c #2D2827",
"w  c #2E2929",
"e  c #2B2728",
"r  c #322623",
"t  c #322926",
"y  c #3A2A24",
"u  c #332C2B",
"i  c #392F2C",
"p  c #36302E",
"a  c #3A312E",
"s  c #363131",
"d  c #3C3433",
"f  c #3E3837",
"g  c #3D3738",
"h  c #3E393A",
"j  c #4F0E03",
"k  c #450E05",
"l  c #520E03",
"z  c #471006",
"x  c #4E1106",
"c  c #4D180F",
"v  c #5D1305",
"b  c #55170C",
"n  c #53180D",
"m  c #5F1A0D",
"M  c #401710",
"N  c #401811",
"B  c #4C1910",
"V  c #561C11",
"C  c #4C2117",
"Z  c #5D2318",
"A  c #622114",
"S  c #442B24",
"D  c #472922",
"F  c #5C2B23",
"G  c #42352F",
"H  c #4A362A",
"J  c #5B3429",
"K  c #593429",
"L  c #413633",
"P  c #4F3533",
"I  c #433936",
"U  c #493B35",
"Y  c #443C3B",
"T  c #493E3A",
"R  c #583934",
"E  c #583935",
"W  c #6A2E23",
"Q  c #613224",
"!  c #47403E",
"~  c #4C413D",
"^  c #52443E",
"/  c #6F5921",
"(  c #65423B",
")  c #644D3A",
"_  c #645436",
"`  c #7C6620",
"'  c #463F40",
"]  c #474141",
"[  c #4D4442",
"{  c #4F4847",
"}  c #4F4949",
"|  c #4D4749",
" . c #524642",
".. c #594740",
"X. c #544945",
"o. c #5D4A45",
"O. c #5A4B45",
"+. c #544B4B",
"@. c #5A4E4A",
"#. c #514749",
"$. c #5D514D",
"%. c #554D50",
"&. c #594F51",
"*. c #5D5353",
"=. c #5F5759",
"-. c #624D45",
";. c #614F4C",
":. c #62534D",
">. c #69594F",
",. c #685347",
"<. c #73584C",
"1. c #625653",
"2. c #665955",
"3. c #6A5B55",
"4. c #615758",
"5. c #655A5B",
"6. c #6A5D5C",
"7. c #685753",
"8. c #6E615E",
"9. c #73635D",
"0. c #78675E",
"q. c #736754",
"w. c #665E61",
"e. c #695F61",
"r. c #6D6263",
"t. c #6F6569",
"y. c #736563",
"u. c #766966",
"i. c #7A6A64",
"p. c #706768",
"a. c #756A6A",
"s. c #7A6C6B",
"d. c #7E706E",
"f. c #766C70",
"g. c #7D7273",
"h. c #7F7779",
"j. c #82726D",
"k. c #877368",
"l. c #827473",
"z. c #857876",
"x. c #897974",
"c. c #85797A",
"v. c #8A7C7B",
"b. c #81767A",
"n. c #907A71",
"m. c #8F817E",
"M. c #94827D",
"N. c #998479",
"B. c #9E887F",
"V. c #A0887B",
"C. c #887D81",
"Z. c #8C8283",
"A. c #938584",
"S. c #978886",
"D. c #9B8A84",
"F. c #948788",
"G. c #95898B",
"H. c #9A8C8B",
"J. c #998783",
"K. c #9E908F",
"L. c #9B8F91",
"P. c #9D9294",
"I. c #A18A80",
"U. c #A9958C",
"Y. c #A1928E",
"T. c #B49A8C",
"R. c #A39694",
"E. c #A89790",
"W. c #A79997",
"Q. c #A99A96",
"!. c #A29798",
"~. c #A59A9C",
"^. c #AB9D9C",
"/. c #B19C93",
"(. c #AFA19E",
"). c #B0A19B",
"_. c #A69DA0",
"`. c #ACA1A3",
"'. c #B3A4A2",
"]. c #B6A9A6",
"[. c #BAABA6",
"{. c #B4ABAD",
"}. c #BBACAA",
"|. c #BBB2B4",
" X c #C5B5B2",
".X c #CDBFBD",
"XX c #CCBCB6",
"oX c #CFC0B9",
"OX c #D0C2BE",
"+X c #CDC2C1",
"@X c #D3C4C1",
"#X c #D4CACA",
/* pixels */
"s d u 9 9 4.e.f.h.u 9 9 8 0 9 9 8 8 = 8 8 % 7 9 } %.+.! 8 9 8 9 3 9 9 9 e e 4 q q p p.h.r.w.s q u s ",
"d Y ] Y h ^ E E E 5 2 < 8 8 e a d d a s d d a a d p u a s p w u u p w p e e p t y 6 R U P P 9 0 e q ",
"u s g T [ Z l l l z - X $ = i O.O.X.X.X.#. . . .~ ~ ~ ^ ^ ~ ! ~ ^ ~ ! ~ h ! ! ~ V x x l k - O o % = ",
"s d I ~ [ F n b n B N ; % > q U U ~ Y ! ' Y U U U I a G ! I I ! ! I h f f f d G Z n b n c : O + 9 = ",
"I I ~ [ g e.;.-.-.o.O.I % & & < > > = = > = > > > = = > & > = 3 > = > > = > = t 3.$.o.^ -.O.p + 7 = ",
"I ~ #.4.r.s.;.o.^ o.,.~ % 4 q q r 0 r u t q q q q 0 e 0 q 0 q 4 4 e e 0 0 4 0 a 3.-.o.X.,.@.g   $ $ ",
"^ X.e.s.7.W b b n c C 5 3 X.:.1.2.*.1.@.@.;.@.@.X.O.@.X.X.O.O.+.X.+.@.+. .O.+.^ Z n n n c : ;   & = ",
"X.8.i.i.,.A l l x x - @ % d ] #.#.+.+.T Y '  .[ [ [  .{ { ~ { { +.+.$.=.&.=.=.-.m l l l j - O % p 9 ",
"r.l.6.>.~ ( Q J K J D 5 $ > 0 u d I U I I I I U I f d d I I g L Y d 0 9 e e d ~ ) Q F K J D > u I 9 ",
"v.v.7.L ~ d.8.3.3.5.3.+.= a d I O.O.I d d d f f a a d a L Y I ~  .! 3 + = & = f s.1.:.1.1.:.] X.d = ",
"Z.m.O.I *.u.8.A.z.=.+.d 3 d f  .$.X.] ] ~ ] [ ] ] [ ] ] u 0 q I  .+.p 0 = & & u w.t.x.r.8.7.] $.I = ",
"v.M.$.[ 8.8.*.K.K.$.p + q d ! 1.r.*.#.] ] ] [ [ ] ! h ] X.u = u X.u.~ p 3 3 3 3 u r.[.8.*.s 9 +.d = ",
"m.M.2.] 8.8.8.K.W.*.s   q f O.r.] $.9.O.X.~ ~ [ ! d 9 9 ' u = e +.k.$.I 3 % 3 3 t r.}.a.*.u 9 { L = ",
"N.N.3.^ 0.0.a.E.Q.5.d % q ~ 1.r.q  .$.~ ~ ] [ +.*.+.h u [ u % q +.M.8.! 3 & 3 4 I a.}.g.=.s 3 [ I > ",
"J.N.$.~ 9.0.y.`.Q.*.f % 0 ~ 2.9.0 L I L I a a a u 0 * 9 ' u % e X.D.a.~ 3 & % 3 f h. Xd.*.s 9 [ h > ",
"S.J.:.~ 9.i.u.[.W.&.f = t [ 5.t.q ,.i.3.1.5.4.@.@.X.Y 9 Y q   e $.D.g.! 3 % = 3 ! m. Xp.&.s e | s 9 ",
"D.B.:.T 3.9.i.|._.5.i & a @.6.p.3 I ] Y g h ' ' [ ] i w [ i   9 @.V.j.~ 9 = = 0 L Z..Xs.*.u 9 Y d 9 ",
"R.S.:.T :.3.9.[.).5.s % i @.9.p.= [ 6.1.*.+.[ I L i > * Y s # 9 ;.N.l.~ 0 > > , i v.OXl.=.p e ' h e ",
"~.G.:.f $.9.9.].).2.g = s *.9.y.9 X.7.O. .#.*.4.5.5.| 0 Y s % w :.D.v.~ 9 > > 0 u j..Xj.1.d 9 [ h q ",
"W.D.$.d $.9.y.].[.5.I > d *.6.r.9 ~  .~ T Y T g s w 0 0 ] s $ 9 @.B.c.T 9 > > 0 u j.OXj.=.p 0 #.! e ",
"R.S.:.d $.6.9.{.].5.Y > d $.6.p.q 3.k.1.5.5.=.*.[ d t 0 ~ d % 9 O.v.v.[ 0 > > 0 I l.#Xl.2.d e +.! 9 ",
"E.S.:.f :.9.u.`.].5.Y < d @.8.y.q X.@. .+.+.@.1.5.r.X.g +.I & 0 O.U.H. .0 > 0 0 I h.@Xd.5.s 9 [ ! 3 ",
"Q.K.>.d O.y.9.`.{.5.Y = I $.r.y.a $.*.1.[ X.@.^ X. .~ I X.Y > q @.`.!.T 9 = 3 q h g.#Xl.=.d 9 [ ! q ",
"(.H.3.d X.e.6.Q.(.2.I 3 ~ 2.y.p.] g.u.y.Y U O.^ T U a 0 ! Y = u @.'.!.[ 0 > > 0 g s.OXd.4.a 9 ~ { u ",
"(.L.$.! 3.u.u.Q.].8.I 3 ~ 3.3.t.~ 9.@.$.a ~ ^ ^ ~ U G 4  .! = p $.(.W. .e > > 0 a u.XXj.7.a 3 ~ ~ u ",
"`.H.1.~ 8.j.p.(.).6.Y 9 ~ :.3.y.[ y.$.:.G ~ o.^ ^ ~ G q  .~ > t X./.P.] 0 > > > y f.oXz.5.d 9 ~ ! u ",
"`.K.2.~ 9.d.O.j.8.d u > ~ >.9.r.' y.*.1.Y ~ O.^ ^ ~ G r [ Y > p O.T.P.~ 9 > 0 0 p 9.Q.3.+.p 9 ~ ! w ",
"`.L.3.] u.0.0 :.^ > & + a 3.0.y.' r.*.*.T U O.^ ^ I a 4  .! 9 p o.U.H.X.q = 3 q y ! 9.q 4 % 3 I ! w ",
"^.P.8.! 9.p.4 O.~ . o + y -.3.e.Y 6.O.@.Y T O.^ ^ T a 0 X.! 3 d O.I.v.+.q > 3 q u t q.& + O 4 f ! w ",
"Q.H.:.~ i.d.[ *.p.4 @ 3 P ^ 1.p.' @.~ T i U  .~ ~ U a 0 [ T = a :.k.6.@.e 9 9 y p u 8.3 @ @ 4 ~ ! 0 ",
"~.H.1.~ g.d.f.8.W.) 5 a U ^ :.y.1.U  .| [  .O. . .^ ^ ~ O.I 3 G O.3.@.^ 0 3 r G ~ ! 2.q.6 4 6 ~ ~ q ",
"~.P.8.! u.u.a.r.R.) < d ~ O.;.:.y.8.9.y.r.3.3.3.6.9.9.3.@.a a ~ X.+.^ p 3 r I ~ ^ ] 3.k.S 4 4 ~ ! 0 ",
"~.G.=.! 9.s.i.9.Q.$.< p Y ~ T ~  . .| X.X. .O.+.O.@.O.X. .~ X.X.~ ] I u y I ~ ^ ~ { 9.n.G 3 0 X.~ 0 ",
"`.G.*.! 9.l.i.8.^.$., I @.+. . .O.X.O.X.O.X.X.+. .X. . .X.~ ^  .~ X.[ T ~ ~ ! ^ X.+.g.M.U 3 e #.+.q ",
"`.G.&.h t.s.9.r.`.$.4 f 1.:.$.p.f.u.y.p.r.#. . . .X.^ ^ X.+.X.^ ~ [ X. .[ ] ~ ^ ] } h.A.U 0 0 X.X.0 ",
"W.F.*.h r.i.i.u.`.7.> Y $.:.=.a.e.e.e.e.%.u I ~  .~ ^  . .$.O.X.~  .@.^ X.! ! X.+.} b.F.U 0 q +.+.q ",
"U.G.*.f :.8.u.s.{.3.4 ! *.$.:.b.z.a.u.a.Y > a @.@. . .[ ~ { X.^ ^ +.{ X.@.~ [ ^ X.} x.H.U 0 u &.X.e ",
"U.F.5.I y.s.g.a.|.2.3 f $.*.1.b.e.7 8 I d = 9 T U [ X.X.X. .^ ^ [ } { X.@.] ~ ^ X.#.b.L.I 8 i @.X.w ",
"Q.A.5.a :.6.p.p.}.2.> a ~ $.$.v.e.7 7 q i & > g T T [ X.&.$. .~ X.} +. . .]  .^  .[ s.H.Y , i @.+.e ",
"^.A.=.d 5.6.y.5.[.5.0 y H  .X.v.e.* * t u & 0 ~ [ @.@.O. .+. .{  .{ +. . .X.X.X.^ T <.D.T 1 y +.{ e ",
"_.F.*.s 5.a.s.$.^.=.$.$.4 q ! x.6.v v 6 u = t L ~ O.O.X.O. . . . .{ [ X.X.O. .X.1.O.,.M.X.E p +.! w ",
"P.H.r.h t.g.v.+.c.X.5.5.9 = I c.6.S D ^ t & u I [ 1.:.O.o. . .O.X.X.#.X.X.X.{ O.u.5.X.u.Y y.g +.] e ",
"~.G.*.p 8.a.c.*.G.=.8.2.9 = d l.y._ _ ,.y % q I ~ [ [ ^  . . .~  .$.X.X.X.^ X.^ u.5.=.d.+.u.p } ~ 0 ",
"P.A.@.d 3.y.z.&.A.=.r.5.3 = g g.q.` / ) a $ = d Y I Y U T ~ ~ [ +.&.$.+.O.X.X. .y.6.*.g.+.t.u +.Y e ",
"P.v.+.g :.8.d.+.v.5.r.2.= = h a.' q i i 8 % 0 T ~ ^  .X. .X. .+.{ { +.+.X.+.X.X.r.5.+.l.+.y.u %.{ q ",
"G.v.2.d X.8.g.~ 5.{ 8.5.> = h *.d 8 8 > % % d @.9.6.8.6.1.4.4.*.Y f ~ ~ } +.#.X.r.$.X.a.@.y.u %.+.t ",
"A.v.s.$.U :.p.f > 9 =.$.9 = s ~ O.X.' Y d I  .-.9.e.6.5.6.e.5.4.I 3 w I ] X.@. .6.:.w w I y.d =.X.e ",
"g.a.j.9.O.I p 9 = 9 w w = = 9 u q i u t q u u 0 , > > 8 8 > 9 0 3 3 0 p u i p L [ ] e e d #.s *.^ q ",
"u.*.y.i.3.1.5.&.4.4.@.*.&.%.%.X.' o.' E ' ' T T ' T U T #.U T ~ ~ ~ ] ] ! ~ ! ] ~ ~ ] | [ | } +.] e ",
"i.X.~ r.s.a.a.p.s.g.g.a.a.r.t.e.6.6.5.4.5.4.6.6.5.5.6.6.w.2.7.5.5.5.5.5.=.=.5.5.=.5.5.5.5.5.w.5.=.p "
};
