/* XPM */
static char *_cc3b69ba9b0443dd3bb1f7ca254650czsGeGIIkluJ5o9ZP[] = {
/* columns rows colors chars-per-pixel */
"50 50 180 2 ",
"   c #0D0906",
".  c #0E0B0B",
"X  c #110D0D",
"o  c #15110F",
"O  c #130F10",
"+  c #161212",
"@  c #1A1513",
"#  c #1D1916",
"$  c #1D1919",
"%  c #231D1B",
"&  c #27211D",
"*  c #29221F",
"=  c #242121",
"-  c #2B2423",
";  c #2F2927",
":  c #2D2828",
">  c #302622",
",  c #322A25",
"<  c #342D2B",
"1  c #3A2F2A",
"2  c #363224",
"3  c #3B3425",
"4  c #3C322C",
"5  c #3E382A",
"6  c #342F30",
"7  c #363132",
"8  c #3A3433",
"9  c #3E3837",
"0  c #3E3939",
"q  c #40362E",
"w  c #40382D",
"e  c #423631",
"r  c #453934",
"t  c #483C37",
"y  c #443D3C",
"u  c #4A3F3A",
"i  c #4E4536",
"p  c #47403E",
"a  c #4D423C",
"s  c #504736",
"d  c #534937",
"f  c #53453D",
"g  c #55493D",
"h  c #494040",
"j  c #524642",
"k  c #554943",
"l  c #5B4C45",
"z  c #5B4E49",
"x  c #5E5147",
"c  c #5F5249",
"v  c #615747",
"b  c #64544B",
"n  c #68574E",
"m  c #665C4B",
"M  c #6A594E",
"N  c #685750",
"B  c #675850",
"V  c #6D5B52",
"C  c #715E54",
"Z  c #6C6742",
"A  c #6F6846",
"S  c #70644E",
"D  c #766D4C",
"F  c #786E4F",
"G  c #777249",
"H  c #7A734D",
"J  c #746255",
"K  c #766A51",
"L  c #7B6D55",
"P  c #766358",
"I  c #7A665B",
"U  c #7E6A5D",
"Y  c #7D7253",
"T  c #7F7850",
"R  c #7F7058",
"E  c #7F6A60",
"W  c #806A5E",
"Q  c #806B5F",
"!  c #816B5F",
"~  c #816E5E",
"^  c #817556",
"/  c #837A55",
"(  c #83735C",
")  c #88775E",
"_  c #86795A",
"`  c #897B5D",
"'  c #806B60",
"]  c #816B60",
"[  c #816C60",
"{  c #816C61",
"}  c #826C60",
"|  c #826C61",
" . c #826D61",
".. c #836D61",
"X. c #836E61",
"o. c #836E62",
"O. c #836E63",
"+. c #836F63",
"@. c #846D61",
"#. c #846D62",
"$. c #846E62",
"%. c #856E62",
"&. c #846E63",
"*. c #856E63",
"=. c #846F63",
"-. c #856F63",
";. c #846F62",
":. c #866F63",
">. c #866F64",
",. c #836D61",
"<. c #857063",
"1. c #857064",
"2. c #867064",
"3. c #877064",
"4. c #877164",
"5. c #877165",
"6. c #877266",
"7. c #867163",
"8. c #887165",
"9. c #887266",
"0. c #897266",
"q. c #897366",
"w. c #897367",
"e. c #8A7366",
"r. c #8A7367",
"t. c #8B7367",
"y. c #8A7266",
"u. c #8B7467",
"i. c #8B7567",
"p. c #8A7465",
"a. c #8C7964",
"s. c #897468",
"d. c #8A7468",
"f. c #8B7468",
"g. c #8B7569",
"h. c #8B7569",
"j. c #8C7468",
"k. c #8C7568",
"l. c #8C7569",
"z. c #8D7569",
"x. c #8D7669",
"c. c #8F7769",
"v. c #8D766A",
"b. c #8D776B",
"n. c #8C766A",
"m. c #8E766A",
"M. c #8F776A",
"N. c #8E776B",
"B. c #8F776B",
"V. c #8F766A",
"C. c #8D7569",
"Z. c #8F786C",
"A. c #8E7969",
"S. c #90776B",
"D. c #90786C",
"F. c #90796C",
"G. c #90796D",
"H. c #91796D",
"J. c #92796D",
"K. c #927A6D",
"L. c #917A6E",
"P. c #927A6E",
"I. c #937B6F",
"U. c #937B6E",
"Y. c #947B6E",
"T. c #937C6F",
"R. c #947C6F",
"E. c #917A6D",
"W. c #947C70",
"Q. c #957D71",
"!. c #967E71",
"~. c #967E72",
"^. c #977F73",
"/. c #967E73",
"(. c #947D70",
"). c #987F73",
"_. c #988074",
"`. c #9A8174",
"'. c #9A8275",
"]. c #9E8477",
/* pixels */
"U 6.J n.| O././.).).).^.).#.>.h.^.^.U O.)._._.^.V 3.'.D.^.P ^.'.].`._.^.S.U I I n.Y.^.Y.D.q.! V J Z.",
"I >.C r.| U D.D.S.D.D.W.W.U o.#.S.Y.E U S.D.S.D.n o.T.q.h.J D.D.Y.D.D.S.n.#.I I n.S.n.Z.n.6.U n C n.",
"P 6.J r.#.#.D.n.S.n.S.D.S.I >.r.S.S.| o.D.D.D.n.V 3.D.r.t.I n.D.S.S.S.n.u.#.I I j.t.n.S.D.r.I M C D.",
"I 6.I 6.r.#.j.n.n.u.S.n.j.U 6.6.n.n.>.o.D.S.n.u.P ! h.3.n.o.t.n.n.S.u.n.u.r.U I t.t.j.n.S.u.I V P n.",
"J o.P 6.#.#.r.r.r.#.u.r.r.U #.#.t.n.6.U >.r.r.r.P o.q.#.t.#.t.r.r.r.r.r.r.#.I I r.r.n.u.u.6.I M C t.",
"J o.J 6.3.#.u.r.6.r.r.6.r.W o.#.>.r.>.W | r.r.3.P ! 3.3.t.#.3.#.3.#.3.#.6.>.I I :.r.r.r.#.W I b C r.",
"I >.I <.#.o.r.3.6.#.3.#.6.o.#.r.r.3.#.U I ! #.#.I U ! #.q.r.r.3.r.o.#.r.6.#.I I #.6.3.#.U U J n V W ",
"U r.P <.r.6.h.q.h.h.q.n.S.r.n.S.n.D.D.D.h.n.n.D.#.r.u.n.R.R.D.S.n.b.S.D.D.n.| W b.D.Y.q.6.o.I C J o.",
"U r.I #.E I | I U I o.o.} I | } j.S.#.] W | } } U U | W #.r.j.r.| | O.>.E U C C | | U >.r.>.} J J o.",
"| r.I ! I V n b n V V V n b V I | } C V N M V V n V V n C W #.W C V n n N V x b V V P I o.r.#.I P >.",
"W r.I U #.j 7 % % % % % % = h J } } C h - % % % % % % 8 k #.| r.z 9 % % % % % % % y n o.W t.o.U I r.",
"6.r.U U >.I V V C V V V V N C #.} >.#.C V C C M V M n V I 6.W >.E C V V N n n b V V I o.W t.W U U #.",
"6.r.W W 3.q.h.b.n.j.t.n.D.#.q.n.#.} t.r.n.S.S.n.S.S.n.3.D.r.| 3.h.n.h.r.q.q.3.#.h.n.S.W I r.U I I >.",
"#.>.#.I s g x b n z f f f i i i M C l f g g g f g g g f l b I k f l b N c g d i f u f x U 6.#.U I 3.",
"r.r.#.C % : 7 0 8 = O X X X X X f b > % % # % # % % % % % 4 I > = 6 0 8 ; o X X X O . 1 I 6.r.E I t.",
"6.n.3.J < 8 y 8 & X X X X X X X f n 1 1 1 1 1 1 1 1 1 1 1 r I e 7 y 9 : o . X . O O X 1 I r.r.E U t.",
"q.n.o.U x m b v j s d d g f f f V J M M n M n M M M V V M V W N N V B l f j d f f f f x t.t.t.o.W r.",
"n.h.#.o.( ) 3.3.u.q.a.a.q.r.6.6.~ W #.:.6.r.a.q.r.j.r.j.t.#.| | t.V.t.t.t.r.a.n.r.r.8.] | t.V.O.W r.",
"6.r.o.o.q.K J C C C J V J V J O.( #.~ C V V V V C C V C I n.| >.] C C J V V C C C C | >.| t.t.O.o.u.",
"#.t.>.o.r.j 7 % % % % % % - a I 6.>.C a - % % % % % % 7 j r.6.t.z 9 = % % % % % = y N 3.O.t.t.O.#.n.",
"! n.r.W 6.o.U U W I I I U W W a.#.#.6.U E U U U | I | W #.n.>.r.o.I | #.| | | U ] | #.#.#.V.V.w.3.S.",
"#.n.r.W <.q.r.3.r.r.r.u.q.u.u.u.3.U >.t.r.r.r.r.3.r.j.j.n.r.#.I >.w.r.n.n.a.q.h.l.t.w.| | G.V.V.3.S.",
"r.u.r.P 5 r a l z a 3 1 3 r 3 3 v b 1 t a z k a 4 1 1 q q r I t < 4 4 1 , 2 4 i k z k b >.l.S.j.3.n.",
"r.r.#.C = : 0 t 8 # X X % #     f g % < 0 0 < + X X . X X % C = . + .   . . $ 6 0 0 : 8 | l.S.j.3.t.",
"3.u.3.I 4 9 y r > o @ % % o o X g b 7 t y 1 # + O + o + + % C , $ % $ $ $ : 6 y y < + 1 ! t.t.r.:.u.",
"r.u.t.! S J P S M M m m m n M n K M a t r w 3 3 4 4 4 3 4 u I n N V V V V C K I P M n C #.r.t.r.:.n.",
"#.n.r.~ 6.b h r r r r t r t x I 3.b > % % # % % % % % % % q I :.N j r r e r r e r k C j.#.S.n.t.:.S.",
"#.q.r.~ >.b j r e e w e r r k W #.b - & % & % & % % % % % q I n.V j r r r e r e e k J 3.#.n.n.r.r.t.",
"3.n.n.#.h.D.S.D.j.n.n.a.S.c.r.r.#.b 4 e q q e e e e e q e r W z.S.j.S.u.t.t.S.j.l.n.t.o.#.n.S.r.r.S.",
"t.n.n.W J o.) ! P J J J K P P P U J M C V V V S C C C C C C W ! } } r.#.o.o.>.| t.>.| I #.S.D.S.r.t.",
"t.n.j.I i P ( P b r , & & & * 1 b >.#.C C V V V M V C V P :.! ! I V n N n n V V V V I o.~ S.D.S.r.r.",
"t.j.3.I l U z k n U I b i 3 * - b >.J u > % % % % % % 8 j :.! r.z y % % % % % % = y n r.#.n.D.S.r.t.",
"r.t.r.I M #.V u * * 4 x I r.I b J #.t.I U E o.U | E U | >.6.W r.#.I I U U U I E E E o.#.o.t.S.n.r.n.",
"W #.U I J 6.n.j.I b t = * < k I q.q.3.3.h.r.q.q.r.r.n.t.t.6.o.#.#.r.t.>.3.n.j.t.r.r.3.! U r.u.t.3.3.",
"U W | r.6.U ! #.j.S.t.E V f e h U n.<.) p.a.D.q.u.n.n.n.h.r.q.r.<.h.n.h.q.q.b.S.3.3.3.6.U r.6.r.r.#.",
"U #.n.| U I I J C C E >.q.S.#.U q.3.U U U E <.o.#.| o.o.W o.! ! U U ! o.! U ! #.U o.o.U o.o.| W 3.a.",
"#.r.S.b.n.r.n.a.h.! P C J U 3.^ u.3.3.! #.| q.r.~ #.3.r.r.n.n.n.O.6.( o.W 6.3.t.( #.#.:.n.u.3.3.n.u.",
"r.6.q.Y.S.a.R.R.T.T.K.n.U J V S ( u.r.r.t.a.b.a.u.u.u.a.u.Y.^.R.a.b.S.q.3.q.u.u.r.b.q.r.n.D.a.S.D.n.",
"o.r.r.a.a.S.S.u.u.b.S.u.a.#.U r.b.q.r.3.3.u.b.u.u.u.a.u.A.S.K.D.S.a.n.u.3.3.u.a.r.q.3.r.n.D.n.D.b.q.",
"#.n.3.u.u.a.b.a.a.u.a.n.u.a.u.q.S.q.3.3.( a.b.q.u.u.u.u.u.u.u.q.q.q.u.3.3.n.R.u.3.r.( r.r.) a.u.3.q.",
"! q.a.S.Z.a.7.a.3.3.<.( <.a.T.b.a.<.U <.7.a.q.a.6.>.#.a.a.r.6.U R 1.p.7.a.h.A.( 3.r.q.n.a.~ ( o.<.q.",
"( R 7.b.Z.) ( 3.! ( <.R U 7.a.a.a.U <.6.7.a.a.q.a.( a.! ! ! Y L L R U R q.a.A.a.<.U 7.b.S.a.a.q.h.a.",
"L L L ! <.7.q.<.( ( R R R <.p.( R ( R ( q.p.( R ! 7.a.a.) ) ) ! U R <.<.p.p.a.R 3.( q.) a.S.n.a.q.( ",
"<.R ( L ( ( <.( L R U U R R 7.( R ( o.<.( 7.` 7.7._ q.a.q.) ` ( L L U R <.R Y 7.( ( 7.7.u.u.u.~ a.7.",
"( ( U 7._ _ ^ Y ( L L Y R a.a.Y 3.( ( R ( 3.) q.` ^ ` ) a.3.a.! L I U R K L L R ( L r.( ( a.( L <.3.",
"L L F ^ Y _._ ` ( ( ( ( a.a.a.L R ( U Y Y ( ( 6.) 3.^ ( _ 7.( L L L L K L L ( ( U ( 3.) ^ ^ ( Y 6.R ",
"^ Y F Y K Y ` a.` _ ^ ` _._ a.Y Y L L L K Y ^ a._ ) ` ) ) ` a.L R R R L R R _ R R ^ ( ^ ^ ^ _ L ( Y ",
"H Y ^ R Y H _ / _ _ T T _.a._ ( ( 7.U L Y ^ ^ ) _ a.` ^ 3.) _ L Y Y R R K Y _ R H Y Y ` ^ L ^ ~ K Y ",
"D D Y ^ Y / / ` 7./ / a.^ ^ ) L ( ( L Y / _ _ ` ) ) 3.Y ^ a./ Y T H Y Y L D Y T _ R / / a.^ Y Y Y H ",
"Z F Y Y ( H _ ) Y ( / Y F Y ) L ( L L ^ / _ _ ` ( ^ _ Y ^ L L K F G Y L A F / / _ _ T T Y ` Y Y H K "
};
